<svg xmlns="http://www.w3.org/2000/svg" version="1.1" id="Layer_1" x="0" y="0" width="254.16" height="30.24" viewBox="0 0 254.16 30.24" enable-background="new 0 0 254.16 30.24" xml:space="preserve"><polyline fill="#FF8200" points="3.26 13.39 10.89 13.39 10.89 11.14 3.26 11.14 3.26 4.71 12.04 4.71 12.04 2.46 0.66 2.46 0.66 22.4 12.37 22.4 12.37 20.15 3.26 20.15 3.26 13.39 "/><path fill="#FF8200" d="M23.1 7.05c-2.24 0-3.63 1.12-4.85 2.61l-0.4-2.21h-2.34l0.13 1.19c0.1 0.76 0.13 1.78 0.13 2.97v10.79h2.54V12.36c0.69-0.96 2.15-2.47 2.48-2.64 0.23-0.13 1.29-0.4 2.08-0.4 2.28 0 2.48 1.16 2.54 3.43 0.03 1.19 0.03 3.17 0.03 3.17 0.03 3-0.1 6.47-0.1 6.47h2.54c0 0 0.07-4.49 0.07-6.96 0-1.48 0.03-2.97-0.1-4.46C27.59 7.91 25.77 7.05 23.1 7.05M44.75 7.45h-1.98l-0.56 1.19c-0.89-1.19-2.44-1.58-3.8-1.58 -4.65 0-7.13 3.04-7.13 8.22 0 4.59 2.81 7.06 6.37 7.06 1.98 0 3.2-0.66 4.36-1.95 0 1.35 0.07 2.41 0.07 3.07 0 2.87-1.85 3.76-4.65 3.76 -2.38 0-3.3-0.59-3.3-2.94l-2.61 0.5c0 3.6 2.74 4.62 6.01 4.62 4.52 0 7.03-2.08 7.03-5.61 0-0.43-0.03-2.01-0.03-3.17V9.56L44.75 7.45M41.97 17.35c-0.76 1.55-2.28 2.81-3.99 2.81 -2.14 0-3.96-1.02-3.96-5.21 0-3.3 1.42-4.75 1.82-5.15 0.23-0.23 1.49-0.56 2.67-0.56 2.24 0 3.46 1.49 3.46 4.82V17.35z"/><rect x="49.13" y="7.45" fill="#FF8200" width="2.54" height="14.95"/><path fill="#FF8200" d="M50.39 1.18c-0.92 0-1.65 0.92-1.65 1.82 0 0.92 0.76 1.85 1.65 1.85 0.89 0 1.68-0.96 1.68-1.88S51.28 1.18 50.39 1.18M63.62 7.05c-2.24 0-3.63 1.12-4.85 2.61l-0.4-2.21h-2.34l0.13 1.19c0.1 0.76 0.13 1.78 0.13 2.97v10.79h2.54V12.36c0.69-0.96 2.15-2.47 2.48-2.64 0.23-0.13 1.29-0.4 2.08-0.4 2.28 0 2.48 1.16 2.54 3.43 0.03 1.19 0.03 3.17 0.03 3.17 0.03 3-0.1 6.47-0.1 6.47h2.54c0 0 0.07-4.49 0.07-6.96 0-1.48 0.03-2.97-0.1-4.46C68.11 7.91 66.29 7.05 63.62 7.05M84.48 14.61c0-5.18-1.42-7.56-6.01-7.56 -3.86 0-6.67 2.77-6.67 7.92 0 4.92 2.97 7.82 6.73 7.82 2.81 0 4.36-0.63 5.68-1.42l-0.2-2.31c-0.89 0.79-2.94 1.55-4.69 1.55 -3.14 0-4.88-1.95-4.88-5.51v-0.49H84.48M76.33 9.66c0.17-0.16 1.29-0.46 1.98-0.46 2.48 0 3.76 0.53 3.86 3.43h-7.46C74.97 10.75 76.13 9.86 76.33 9.66zM99.39 14.61c0-5.18-1.42-7.56-6.01-7.56 -3.86 0-6.67 2.77-6.67 7.92 0 4.92 2.97 7.82 6.73 7.82 2.81 0 4.36-0.63 5.68-1.42l-0.2-2.31c-0.89 0.79-2.94 1.55-4.69 1.55 -3.14 0-4.88-1.95-4.88-5.51v-0.49H99.39M91.24 9.66c0.17-0.16 1.29-0.46 1.98-0.46 2.48 0 3.76 0.53 3.86 3.43h-7.46C89.89 10.75 91.04 9.86 91.24 9.66zM108.73 7.08c-1.62 0-2.87 1.45-3.4 2.74l-0.43-2.38h-2.34l0.13 1.19c0.1 0.76 0.13 1.75 0.13 2.91v10.86h2.54v-9.51c0.53-1.29 1.72-3.7 3.17-3.7 0.96 0 1.06 0.99 1.06 1.22l2.08-0.59V9.66c0-0.03-0.03-0.16-0.07-0.4C111.34 7.84 110.45 7.08 108.73 7.08M114.9 1.18c-0.92 0-1.65 0.92-1.65 1.82 0 0.92 0.76 1.85 1.65 1.85 0.89 0 1.68-0.96 1.68-1.88S115.79 1.18 114.9 1.18"/><rect x="113.65" y="7.45" fill="#FF8200" width="2.54" height="14.95"/><path fill="#FF8200" d="M128.14 7.05c-2.24 0-3.63 1.12-4.85 2.61l-0.4-2.21h-2.34l0.13 1.19c0.1 0.76 0.13 1.78 0.13 2.97v10.79h2.54V12.36c0.69-0.96 2.15-2.47 2.48-2.64 0.23-0.13 1.29-0.4 2.08-0.4 2.28 0 2.48 1.16 2.54 3.43 0.03 1.19 0.03 3.17 0.03 3.17 0.03 3-0.1 6.47-0.1 6.47h2.54c0 0 0.07-4.49 0.07-6.96 0-1.48 0.03-2.97-0.1-4.46C132.62 7.91 130.81 7.05 128.14 7.05M149.78 7.45h-1.98l-0.56 1.19c-0.89-1.19-2.44-1.58-3.79-1.58 -4.65 0-7.13 3.04-7.13 8.22 0 4.59 2.81 7.06 6.37 7.06 1.98 0 3.2-0.66 4.36-1.95 0 1.35 0.07 2.41 0.07 3.07 0 2.87-1.85 3.76-4.65 3.76 -2.38 0-3.3-0.59-3.3-2.94l-2.61 0.5c0 3.6 2.74 4.62 6.01 4.62 4.52 0 7.03-2.08 7.03-5.61 0-0.43-0.03-2.01-0.03-3.17V9.56L149.78 7.45M147.01 17.35c-0.76 1.55-2.28 2.81-3.99 2.81 -2.15 0-3.96-1.02-3.96-5.21 0-3.3 1.42-4.75 1.81-5.15 0.23-0.23 1.49-0.56 2.67-0.56 2.24 0 3.47 1.49 3.47 4.82V17.35z"/><polyline fill="#FF8200" points="166.35 18.01 160.18 2.46 157.44 2.46 165.62 22.79 166.91 22.79 174.7 2.46 172.12 2.46 166.35 18.01 "/><path fill="#FF8200" d="M178.62 1.18c-0.92 0-1.65 0.92-1.65 1.82 0 0.92 0.76 1.85 1.65 1.85 0.89 0 1.69-0.96 1.69-1.88S179.52 1.18 178.62 1.18"/><rect x="177.37" y="7.45" fill="#FF8200" width="2.54" height="14.95"/><rect x="184.53" y="0.85" fill="#FF8200" width="2.54" height="21.55"/><rect x="191.69" y="0.85" fill="#FF8200" width="2.54" height="21.55"/><path fill="#FF8200" d="M210.9 9.56l0.23-2.11h-1.98l-0.56 1.19c-0.89-1.15-2.41-1.58-3.76-1.58 -4.65 0-7.16 3.04-7.16 8.22 0 4.85 2.81 7.56 6.4 7.56 1.88 0 3.37-0.63 4.59-2.48l0.1 0.63c0.07 0.43 0.2 0.93 0.36 1.42h2.48c-0.36-1.06-0.69-3.33-0.69-4.45V9.56M208.36 17.18c-0.96 2.31-2.24 3.47-3.86 3.47 -2.11 0-4.09-1.45-4.09-5.74 0-3.3 1.42-4.72 1.81-5.12 0.23-0.23 1.49-0.56 2.68-0.56 2.24 0 3.47 1.49 3.47 4.82V17.18zM227.79 7.45h-1.98l-0.56 1.19c-0.89-1.19-2.44-1.58-3.8-1.58 -4.65 0-7.13 3.04-7.13 8.22 0 4.59 2.81 7.06 6.37 7.06 1.98 0 3.2-0.66 4.36-1.95 0 1.35 0.07 2.41 0.07 3.07 0 2.87-1.85 3.76-4.65 3.76 -2.38 0-3.3-0.59-3.3-2.94l-2.61 0.5c0 3.6 2.74 4.62 6.01 4.62 4.52 0 7.03-2.08 7.03-5.61 0-0.43-0.03-2.01-0.03-3.17V9.56L227.79 7.45M225.02 17.35c-0.76 1.55-2.28 2.81-3.99 2.81 -2.15 0-3.96-1.02-3.96-5.21 0-3.3 1.42-4.75 1.81-5.15 0.23-0.23 1.49-0.56 2.68-0.56 2.24 0 3.47 1.49 3.47 4.82V17.35zM238.52 20.62c-3.14 0-4.89-1.95-4.89-5.51v-0.49h10.03c0-5.18-1.42-7.56-6.01-7.56 -3.86 0-6.67 2.77-6.67 7.92 0 4.92 2.97 7.82 6.73 7.82 2.8 0 4.36-0.63 5.68-1.42l-0.2-2.31C242.31 19.86 240.27 20.62 238.52 20.62M235.52 9.66c0.17-0.16 1.29-0.46 1.98-0.46 2.48 0 3.76 0.53 3.86 3.43h-7.46C234.16 10.75 235.32 9.86 235.52 9.66zM253.5 6.11l-0.26-3.62h-0.86l-1.06 2.15 -0.99-2.15h-0.93l-0.26 3.62h0.77l0.16-2.47 1.15 2.56 1.34-2.56 0.13 2.47H253.5zM248.73 3.19V2.49h-3.14v0.71h1.19v2.92h0.77V3.19H248.73z"/></svg>